<svg width="25" height="20" viewBox="0 0 25 20" fill="none" xmlns="http://www.w3.org/2000/svg">
<mask id="mask0_2243_6761" style="mask-type:luminance" maskUnits="userSpaceOnUse" x="0" y="0" width="25" height="20">
<path d="M24.3838 0.118652H0.383789V19.1187H24.3838V0.118652Z" fill="white"/>
</mask>
<g mask="url(#mask0_2243_6761)">
<path d="M24.3843 0.118408H0.383789V19.1188H24.3843V0.118408Z" fill="white"/>
<path d="M24.3843 7.7186H13.5839V0.118408H11.1839V7.7186H0.383789V11.5186H11.1839V19.1188H13.5839V11.5186H24.3843" fill="#D02027"/>
<path d="M16.3841 12.7853H18.1729L24.3843 17.7025V19.1188M8.38395 6.45187H6.59499L0.383789 1.53467V0.118408L8.38395 6.45187ZM8.38395 12.7853H10.1727L2.17275 19.1188H0.383789L8.38395 12.7853ZM16.3839 6.45187H14.5952L22.5951 0.118408H24.3843L16.3839 6.45187Z" fill="#D02027"/>
<path d="M0.383789 12.7853V16.9946L5.70059 12.7853M24.3843 12.7853V16.9946L19.0673 12.7853H24.3843ZM0.383789 6.45187V2.24337L5.70059 6.45187H0.383789ZM24.3838 6.45187V2.24337L19.0673 6.45187H24.3838ZM10.3838 19.1188V13.3263L3.06699 19.1188H10.3838ZM14.3838 19.1188V13.3263L21.7007 19.1188H14.3838ZM10.3839 0.118408V5.91037L3.06715 0.118408H10.3839ZM14.3839 0.118408V5.91037L21.7009 0.118408H14.3839Z" fill="#18325B"/>
</g>
</svg>
